<svg width="18" height="14" viewBox="0 0 18 14" fill="none" xmlns="http://www.w3.org/2000/svg">
<path d="M3.60515 0.694824C3.37475 0.694824 3.13446 0.772228 2.95807 0.947725L1.80518 2.10149L1.55228 1.84771C1.20039 1.49671 0.610011 1.49671 0.258118 1.84771C-0.0928753 2.1996 -0.0928753 2.78998 0.258118 3.14187L1.1581 4.04185C1.50999 4.39285 2.10037 4.39285 2.45227 4.04185L4.25223 2.24189C4.60322 1.89 4.60322 1.29962 4.25223 0.947725C4.07583 0.772228 3.83554 0.694824 3.60515 0.694824ZM7.20508 1.59481C6.70829 1.59481 6.3051 1.998 6.3051 2.49479C6.3051 2.99158 6.70829 3.39477 7.20508 3.39477H17.1049C17.6017 3.39477 18.0049 2.99158 18.0049 2.49479C18.0049 1.998 17.6017 1.59481 17.1049 1.59481H7.20508ZM3.60515 5.19474C3.37475 5.19474 3.13446 5.27214 2.95807 5.44764L1.80518 6.6014L1.55228 6.34762C1.20039 5.99663 0.610011 5.99663 0.258118 6.34762C-0.0928753 6.69951 -0.0928753 7.28989 0.258118 7.64178L1.1581 8.54177C1.50999 8.89276 2.10037 8.89276 2.45227 8.54177L4.25223 6.7418C4.60322 6.38991 4.60322 5.79953 4.25223 5.44764C4.07583 5.27214 3.83554 5.19474 3.60515 5.19474ZM7.20508 6.09472C6.70829 6.09472 6.3051 6.49791 6.3051 6.9947C6.3051 7.49149 6.70829 7.89468 7.20508 7.89468H17.1049C17.6017 7.89468 18.0049 7.49149 18.0049 6.9947C18.0049 6.49791 17.6017 6.09472 17.1049 6.09472H7.20508ZM3.60515 9.69465C3.37475 9.69465 3.13446 9.77205 2.95807 9.94755L1.80518 11.1013L1.55228 10.8475C1.20039 10.4965 0.610011 10.4965 0.258118 10.8475C-0.0928753 11.1994 -0.0928753 11.7898 0.258118 12.1417L1.1581 13.0417C1.50999 13.3927 2.10037 13.3927 2.45227 13.0417L4.25223 11.2417C4.60322 10.8898 4.60322 10.2994 4.25223 9.94755C4.07583 9.77205 3.83554 9.69465 3.60515 9.69465ZM7.20508 10.5946C6.70829 10.5946 6.3051 10.9978 6.3051 11.4946C6.3051 11.9914 6.70829 12.3946 7.20508 12.3946H17.1049C17.6017 12.3946 18.0049 11.9914 18.0049 11.4946C18.0049 10.9978 17.6017 10.5946 17.1049 10.5946H7.20508Z" fill="#64748B"/>
</svg>
