<svg width="18" height="18" viewBox="0 0 18 18" fill="none" xmlns="http://www.w3.org/2000/svg">
<path d="M13.25 15.375V14.6678C12.4697 14.6678 11.8355 14.0303 11.8322 13.25C11.8322 12.4697 12.4697 11.8355 13.25 11.8322C14.0303 11.8322 14.6645 12.4697 14.6678 13.25C14.6678 13.6418 14.5117 13.9904 14.2527 14.2494C13.9938 14.5084 13.6418 14.6645 13.2533 14.6645V15.375V16.0822C14.8172 16.0822 16.0855 14.8139 16.0855 13.25C16.0855 11.6861 14.8172 10.4178 13.2533 10.4178C11.6895 10.4178 10.4211 11.6861 10.4211 13.25C10.4211 14.8139 11.6895 16.0822 13.2533 16.0822V15.375H13.25ZM17.5 12.5428H15.375V13.9605H17.5V12.5428H15.375V13.9605H17.5V12.5428ZM14.2527 15.2555L15.7568 16.7596L16.7596 15.7568L15.2555 14.2527L14.2527 15.2555L15.7568 16.7596L16.7596 15.7568L15.2555 14.2527L14.2527 15.2555ZM13.9572 17.5V15.375H12.5395V17.5H13.9572V15.375H12.5395V17.5H13.9572ZM10.7465 16.7563L12.2473 15.2521L11.2445 14.2494L9.74375 15.7535L10.7465 16.7563L12.2473 15.2521L11.2445 14.2494L9.74375 15.7535L10.7465 16.7563ZM9 13.9572H11.125V12.5395H9V13.9572H11.125V12.5395H9V13.9572ZM12.2473 11.2479L10.7465 9.74375L9.74375 10.7465L11.2445 12.2506L12.2473 11.2479L10.7465 9.74375L9.74375 10.7465L11.2445 12.2506L12.2473 11.2479ZM13.9572 11.125V9H12.5395V11.125H13.9572V9H12.5395V11.125H13.9572ZM15.2555 12.2506L16.7596 10.7465L15.7568 9.74375L14.2527 11.2479L15.2555 12.2506L16.7596 10.7465L15.7568 9.74375L14.2527 11.2479L15.2555 12.2506ZM9.81348 8.81406C8.79746 7.94082 7.53574 7.57559 6.16445 7.58223C4.67695 7.58223 3.25254 7.9707 2.18672 8.92031C1.65547 9.3918 1.22715 9.99941 0.938281 10.7266C0.649414 11.4537 0.5 12.2971 0.5 13.25V17.5H8.29277V16.0822H1.91777V13.25C1.91777 12.4432 2.04395 11.7857 2.25645 11.2512C2.57852 10.4543 3.07988 9.91973 3.7373 9.55117C4.39805 9.18594 5.23145 9 6.16777 9C7.31328 9.00664 8.16328 9.27227 8.89375 9.89316L9.81348 8.81406ZM6.16777 8.29277V9C8.51523 9 10.4178 7.09746 10.4178 4.75C10.4178 2.40254 8.51523 0.5 6.16777 0.5C3.82031 0.5 1.91777 2.40254 1.91777 4.75C1.91777 7.09746 3.82031 9 6.16777 9V8.29277V7.58555C5.38418 7.58555 4.68027 7.27012 4.16563 6.75547C3.65098 6.24082 3.33555 5.53691 3.33555 4.75332C3.33555 3.96973 3.65098 3.26582 4.16563 2.75117C4.68027 2.23652 5.38418 1.92109 6.16777 1.92109C6.95137 1.92109 7.65527 2.23652 8.16992 2.75117C8.68457 3.26582 9 3.96973 9 4.75332C9 5.53691 8.68457 6.24082 8.16992 6.75547C7.65527 7.27012 6.95137 7.58555 6.16777 7.58555V8.29277Z" fill="#64748B"/>
</svg>
