<svg width="14" height="18" viewBox="0 0 14 18" fill="none" xmlns="http://www.w3.org/2000/svg">
<path d="M6.99995 0C3.52055 0 0.699951 2.8206 0.699951 6.3C0.699951 8.0631 1.19045 9.11341 2.27495 10.3779C2.32535 10.4373 2.51166 10.6632 2.55576 10.7154C3.19566 11.4615 3.39995 11.8683 3.39995 12.6V14.4C3.39995 16.3881 5.01185 18 6.99995 18C8.98805 18 10.6 16.3881 10.6 14.4V12.6C10.6 11.8683 10.8042 11.4615 11.4441 10.7154C11.4882 10.6632 11.6746 10.4373 11.725 10.3779C12.8095 9.11341 13.3 8.0631 13.3 6.3C13.3 2.8206 10.4794 0 6.99995 0ZM6.99995 1.8C9.48485 1.8 11.5 3.8151 11.5 6.3C11.5 7.5744 11.203 8.23049 10.375 9.19709C10.3282 9.25109 10.114 9.47789 10.0654 9.53459C9.42366 10.2834 9.05014 10.9566 8.88724 11.7054C7.74604 11.7054 6.25115 11.7099 5.10995 11.7099C4.94705 10.9602 4.57625 10.2834 3.93455 9.53459C3.88595 9.47789 3.67175 9.25109 3.62495 9.19709C2.79695 8.23049 2.49995 7.5744 2.49995 6.3C2.49995 3.8151 4.51505 1.8 6.99995 1.8ZM6.99995 3.6C5.50865 3.6 4.29995 4.8087 4.29995 6.3C4.29995 6.7968 4.70315 7.2 5.19995 7.2C5.69675 7.2 6.09995 6.7968 6.09995 6.3C6.09995 5.8032 6.50315 5.4 6.99995 5.4C7.49675 5.4 7.89995 4.9968 7.89995 4.5C7.89995 4.0032 7.49675 3.6 6.99995 3.6ZM5.19995 13.5C6.31235 13.5 7.68755 13.5 8.79995 13.5V14.4C8.79995 15.3945 7.99445 16.2 6.99995 16.2C6.00545 16.2 5.19995 15.3945 5.19995 14.4V13.5Z" fill="#64748B"/>
</svg>
