<svg width="28" height="28" viewBox="0 0 28 28" fill="none" xmlns="http://www.w3.org/2000/svg">
<path d="M14 11.4545V16.8763H21.5345C21.2037 18.6199 20.2108 20.0964 18.7218 21.0891L23.2654 24.6145C25.9126 22.171 27.4399 18.5819 27.4399 14.3182C27.4399 13.3255 27.3509 12.3709 27.1854 11.4546L14 11.4545Z" fill="#4285F4"/>
<path d="M6.15404 16.6647L5.12929 17.4491L1.50195 20.2745C3.80558 24.8436 8.52705 28 13.9997 28C17.7796 28 20.9487 26.7527 23.2651 24.6146L18.7215 21.0891C17.4742 21.9291 15.8833 22.4382 13.9997 22.4382C10.3598 22.4382 7.26712 19.9819 6.15977 16.6728L6.15404 16.6647Z" fill="#34A853"/>
<path d="M1.50171 7.72546C0.547216 9.60902 0 11.7345 0 13.9999C0 16.2653 0.547216 18.3908 1.50171 20.2744C1.50171 20.287 6.15997 16.6598 6.15997 16.6598C5.87997 15.8198 5.71447 14.929 5.71447 13.9998C5.71447 13.0706 5.87997 12.1797 6.15997 11.3397L1.50171 7.72546Z" fill="#FBBC05"/>
<path d="M14 5.57454C16.0619 5.57454 17.8946 6.28725 19.3582 7.66181L23.3673 3.65277C20.9363 1.38736 17.7801 0 14 0C8.52734 0 3.80558 3.14363 1.50195 7.72546L6.16007 11.34C7.26728 8.03089 10.36 5.57454 14 5.57454Z" fill="#EA4335"/>
</svg>
