<svg width="18" height="14" viewBox="0 0 18 14" fill="none" xmlns="http://www.w3.org/2000/svg">
<path fill-rule="evenodd" clip-rule="evenodd" d="M1.59289 13.2223C1.26824 13.2248 1.00293 12.9638 1 12.6392V8.36097C1.00293 8.03632 1.26824 7.77539 1.59289 7.77786H2.68889C3.01354 7.77539 3.27885 8.03632 3.28178 8.36097V12.6392C3.27885 12.9638 3.01354 13.2248 2.68889 13.2223H1.59289Z" stroke="#64748B" stroke-width="1.5" stroke-linecap="round" stroke-linejoin="round"/>
<path fill-rule="evenodd" clip-rule="evenodd" d="M6.16445 13.2223C5.83981 13.2248 5.5745 12.9638 5.57156 12.6392V6.02763C5.5745 5.70299 5.83981 5.44206 6.16445 5.44452H7.2649C7.58955 5.44206 7.85486 5.70299 7.85779 6.02763V12.6392C7.85486 12.9638 7.58955 13.2248 7.2649 13.2223H6.16445Z" stroke="#64748B" stroke-width="1.5" stroke-linecap="round" stroke-linejoin="round"/>
<path fill-rule="evenodd" clip-rule="evenodd" d="M10.7351 13.2223C10.4104 13.2248 10.1451 12.9638 10.1422 12.6392V3.6943C10.1451 3.36965 10.4104 3.10872 10.7351 3.11118H11.8355C12.1602 3.10872 12.4255 3.36965 12.4284 3.6943V12.6392C12.4255 12.9638 12.1602 13.2248 11.8355 13.2223H10.7351Z" stroke="#64748B" stroke-width="1.5" stroke-linecap="round" stroke-linejoin="round"/>
<path fill-rule="evenodd" clip-rule="evenodd" d="M15.3111 13.2223C14.9865 13.2248 14.7212 12.9638 14.7182 12.6392V1.36096C14.7212 1.03632 14.9865 0.775384 15.3111 0.777849H16.4116C16.7345 0.777836 16.9971 1.03806 17 1.36096V12.6392C16.9971 12.9638 16.7318 13.2248 16.4071 13.2223H15.3111Z" stroke="#64748B" stroke-width="1.5" stroke-linecap="round" stroke-linejoin="round"/>
</svg>
